<svg xmlns="http://www.w3.org/2000/svg" xmlns:xlink="http://www.w3.org/1999/xlink" width="70.672" height="76.291" viewBox="0 0 70.672 76.291">
  <defs>
    <clipPath id="clip-path">
      <path id="Caminho_4" data-name="Caminho 4" d="M0-29.441H70.672v-76.291H0Z" transform="translate(0 105.732)" fill="#e9c680"/>
    </clipPath>
  </defs>
  <g id="Grupo_5" data-name="Grupo 5" transform="translate(0 105.732)">
    <g id="Grupo_4" data-name="Grupo 4" transform="translate(0 -105.732)" clip-path="url(#clip-path)">
      <g id="Grupo_1" data-name="Grupo 1" transform="translate(14.338 13.64)">
        <path id="Caminho_1" data-name="Caminho 1" d="M-16.207-9.211l-8.808-8.9V-26.1h-8.806a4.378,4.378,0,0,0,.849-2.592,4.363,4.363,0,0,0-4.334-4.381A4.363,4.363,0,0,0-41.641-28.7a4.378,4.378,0,0,0,.849,2.592h-8.6v7.993l-8.808,8.9h1.3a8.485,8.485,0,0,0,8.392,7.634,8.486,8.486,0,0,0,8.394-7.634h1.3l-8.808-8.9v-6.2h9.429V.573H-43.5V2.441h-1.7V4.792h-1.7V7.658h-1.7v3.41H-26V7.658h-1.7V4.792h-1.7V2.441h-1.7V.573H-36.42V-24.313h9.633v6.2l-8.807,8.9h1.3A8.486,8.486,0,0,0-25.9-1.577a8.486,8.486,0,0,0,8.393-7.634Zm-21.1-22.075A2.578,2.578,0,0,1-34.745-28.7a2.578,2.578,0,0,1-2.561,2.588A2.578,2.578,0,0,1-39.868-28.7a2.578,2.578,0,0,1,2.561-2.589M-53.922-11l5.413-5.471L-43.1-11ZM-25.9-16.474-20.488-11H-31.314Z" transform="translate(58.203 33.078)" fill="#e9c680"/>
      </g>
      <g id="Grupo_2" data-name="Grupo 2" transform="translate(0 0)">
        <path id="Caminho_2" data-name="Caminho 2" d="M-1.141-13.782A32.592,32.592,0,0,1,31.24-46.509,31.906,31.906,0,0,1,43.7-43.984l1.263-2.707a34.831,34.831,0,0,0-13.727-2.8A35.566,35.566,0,0,0-4.1-13.782,35.79,35.79,0,0,0,14.846,17.84l1.261-2.7A32.8,32.8,0,0,1-1.141-13.782" transform="translate(4.096 49.495)" fill="#e9c680"/>
      </g>
      <g id="Grupo_3" data-name="Grupo 3" transform="translate(18.029 4.091)">
        <path id="Caminho_3" data-name="Caminho 3" d="M-20.315-12.2A35.788,35.788,0,0,0-39.257-43.825l-1.261,2.7A32.8,32.8,0,0,1-23.271-12.2a32.592,32.592,0,0,1-32.38,32.726A31.907,31.907,0,0,1-68.115,18L-69.378,20.7l-3.58,7.67h3.4l3.075-6.588a34.831,34.831,0,0,0,10.83,1.723,34.85,34.85,0,0,0,10.829-1.722l3.075,6.587h3.268l-3.559-7.625A35.771,35.771,0,0,0-20.315-12.2" transform="translate(72.958 43.825)" fill="#e9c680"/>
      </g>
    </g>
  </g>
</svg>
